<?xml version="1.0" encoding="utf-8"?>
<!-- Generator: Adobe Illustrator 16.0.0, SVG Export Plug-In . SVG Version: 6.00 Build 0)  -->
<!DOCTYPE svg PUBLIC "-//W3C//DTD SVG 1.1//EN" "http://www.w3.org/Graphics/SVG/1.1/DTD/svg11.dtd">
<svg version="1.1" id="Layer_1" xmlns="http://www.w3.org/2000/svg" xmlns:xlink="http://www.w3.org/1999/xlink" x="0px" y="0px"
	 width="612px" height="185.757px" viewBox="0 303.123 612 185.757" enable-background="new 0 303.123 612 185.757"
	 xml:space="preserve">
<path fill="#253A57" d="M507.077,386.31h-50.584c-3.622,0.001-6.562-2.933-6.563-6.556c0-0.001,0-0.002,0-0.003v-11.463
	c0.002-1.366-1.106-2.474-2.472-2.474c-0.611,0-1.202,0.226-1.659,0.636l-40.627,36.887c-1.116,1.002-1.146,4.027,0,4.997
	l40.697,34.532c1.042,0.885,2.604,0.758,3.488-0.284c0.379-0.446,0.588-1.017,0.586-1.604v-16.268h22.803v-12.187
	c0-5.879,6.851-9.1,11.378-5.345l24.04,19.941c0.642,0.53,1.427,0.854,2.254,0.925l0,0c0.837,0,1.515-0.678,1.515-1.514v-35.376
	c0.008-2.669-2.15-4.839-4.82-4.846C507.101,386.31,507.089,386.31,507.077,386.31z"/>
<path fill="#E80D47" d="M419.997,468.386h50.584c3.625,0,6.561,2.935,6.561,6.559v11.462c-0.002,1.366,1.107,2.474,2.473,2.474
	c0.612,0,1.204-0.228,1.661-0.64l40.627-36.888c1.116-1.001,1.144-4.026,0-4.996l-40.696-34.528
	c-1.04-0.885-2.603-0.758-3.486,0.284c-0.382,0.446-0.589,1.017-0.589,1.603v16.268h-22.803v12.187c0,5.88-6.848,9.099-11.375,5.346
	l-24.042-19.941c-0.643-0.53-1.428-0.854-2.257-0.925l0,0c-0.835,0-1.514,0.678-1.514,1.514v35.378
	c-0.008,2.669,2.151,4.838,4.821,4.846C419.974,468.386,419.986,468.386,419.997,468.386z"/>
<path fill="#253A57" d="M39.095,303.388c12.431,0,22.892,5.371,31.385,16.11l0.396,0.664c-8.139,6.159-12.34,9.239-12.608,9.239
	c-4.907-7.033-11.47-10.55-19.689-10.551c-7.83,0-14.399,3.738-19.709,11.216c-2.266,4.157-3.399,8.231-3.399,12.225
	c0,8.361,4.025,15.152,12.076,20.369c3.761,1.95,7.544,2.924,11.349,2.922c7.83,0,14.354-3.517,19.573-10.551l12.409,9.223
	c-0.752,1.591-3.251,4.289-7.497,8.094c-7.303,5.799-15.358,8.698-24.165,8.698h-0.464c-12.166,0-22.429-5.041-30.789-15.126
	c-5.31-7.302-7.963-15.221-7.962-23.754c0-10.925,4.247-20.501,12.739-28.73C20.403,306.739,29.187,303.391,39.095,303.388z"/>
<path fill="#253A57" d="M77.515,303.388H92.98v8.825h0.199c8.229-5.883,18.513-8.825,30.854-8.825v15.466
	c-14.95,0-24.681,5.22-29.194,15.659c-1.239,3.054-1.859,5.886-1.859,8.496v38.019H77.515V303.388z"/>
<path fill="#253A57" d="M166.426,303.388c10.175,0,19.244,3.805,27.206,11.412c7.563,8.016,11.345,17.177,11.345,27.487
	c0,10.793-4.18,20.304-12.54,28.534c-7.698,6.81-16.413,10.215-26.144,10.215h-0.321c-11.548,0-21.412-4.578-29.594-13.735
	c-6.111-7.656-9.166-15.994-9.166-25.016c0-7.83,2.322-15.24,6.966-22.231C142.495,308.945,153.242,303.388,166.426,303.388z
	 M142.872,340.945v0.996l-0.2,0.198l0.2,0.133v1.063c0,6.28,2.986,12.097,8.957,17.451c4.556,3.183,9.312,4.777,14.267,4.779
	c7.653,0,14.002-3.274,19.044-9.82c2.962-4.383,4.444-8.872,4.444-13.471c0-8.05-3.738-14.729-11.213-20.037
	c-3.84-2.196-8.184-3.363-12.608-3.386c-7.733,0-14.191,3.628-19.374,10.884C144.044,333.711,142.872,337.451,142.872,340.945z"/>
<path fill="#253A57" d="M237.16,303.388h44.855v15.466H237.16c-4.201,0-6.811,0.687-7.83,2.059c-1.458,2.078-2.187,4.11-2.187,6.102
	c0,3.452,1.593,5.775,4.778,6.97l2.852,0.528h20.768c12.563,0,20.77,4.799,24.619,14.399c0.99,2.906,1.505,5.953,1.524,9.021
	c0,9.556-4.247,16.458-12.74,20.703c-3.452,1.592-6.682,2.388-9.688,2.388h-47.243v-15.465h46.396c3.583,0,6.015-1.527,7.298-4.578
	l0.532-3.25c0-5.22-3.163-7.831-9.488-7.833h-22.441c-5.883,0-11.324-2.255-16.323-6.766c-4.206-4.429-6.307-9.866-6.305-16.31
	c0-5.84,2.041-11.26,6.122-16.258C221.815,305.781,228.269,303.388,237.16,303.388z"/>
<path fill="#253A57" d="M314.264,303.388h44.854v15.466h-44.854c-4.201,0-6.811,0.687-7.829,2.059
	c-1.461,2.078-2.192,4.11-2.192,6.102c0,3.452,1.593,5.775,4.78,6.97l2.853,0.528h20.771c12.563,0,20.769,4.799,24.615,14.399
	c0.992,2.905,1.508,5.953,1.528,9.021c0,9.556-4.246,16.458-12.74,20.703c-3.453,1.592-6.681,2.388-9.689,2.388h-47.243v-15.465
	h46.38c3.581,0,6.015-1.527,7.301-4.578l0.526-3.25c0-5.22-3.162-7.831-9.488-7.833H311.41c-5.885,0-11.327-2.255-16.325-6.766
	c-4.201-4.429-6.303-9.866-6.303-16.31c0-5.84,2.035-11.26,6.103-16.258C298.913,305.781,305.372,303.388,314.264,303.388z"/>
<path fill="#E80D47" d="M365.821,303.123h15.466v7.632h0.322c7.164-5.085,14.818-7.63,22.958-7.632
	c12.117,0,22.358,4.977,30.724,14.931c5.443,7.341,8.163,14.929,8.159,22.76v2.388c0,10.264-4.313,19.555-12.939,27.869
	c-7.826,6.46-15.92,9.689-24.279,9.689h-3.054c-7.256,0-14.443-2.501-21.564-7.5h-0.322v54.211h-15.466L365.821,303.123z
	 M381.284,341.873c0,8.673,4.07,15.574,12.211,20.703c3.759,1.813,7.162,2.718,10.216,2.718h2.058
	c6.412,0,12.297-3.053,17.651-9.157c3.051-4.511,4.576-9.111,4.576-13.799v-0.664c0-7.475-3.341-13.755-10.018-18.846
	c-4.337-2.833-8.76-4.249-13.271-4.246c-7.476,0-13.802,3.274-18.979,9.82c-2.967,4.38-4.451,8.869-4.451,13.468h0.006V341.873
	L381.284,341.873z"/>
<path fill="#E80D47" d="M488.974,303.388c8.316,0,16.012,2.544,23.089,7.631h0.199v-7.631h15.467v77.649h-15.467v-7.645
	c-7.21,5.087-14.576,7.632-22.096,7.63h-2.055c-11.636,0-21.699-5.087-30.189-15.263c-5.224-7.342-7.834-15.171-7.832-23.487
	c0-12.871,5.552-23.51,16.657-31.916C473.603,305.712,481.012,303.388,488.974,303.388z M465.549,342.14
	c0,8.669,4.137,15.568,12.408,20.7c3.287,1.762,6.955,2.697,10.682,2.722h1.014c7.032,0,13.154-3.274,18.366-9.822
	c2.831-4.296,4.244-8.542,4.244-12.739v-1.063c0-8.094-3.848-14.707-11.543-19.841c-3.94-2.166-7.903-3.249-11.884-3.251
	c-7.431,0-13.709,3.274-18.842,9.822C467.032,333.046,465.549,337.538,465.549,342.14L465.549,342.14z"/>
<path fill="#E80D47" d="M534.357,303.388h15.466v31.982c0,11.548,3.405,20.307,10.216,26.278c3.584,2.61,8.052,3.915,13.403,3.915
	c10.525,0,17.536-5.486,21.034-16.458c1.372-4.332,2.06-8.137,2.06-11.412v-34.306H612v85.994c0,8.494-2.939,16.92-8.823,25.279
	c-7.606,8.628-17.228,12.941-28.863,12.939v-15.466c10.175,0,17.075-4.865,20.7-14.597c1.019-3.673,1.528-6.681,1.528-9.021v-15.143
	c-6.369,5.088-14.175,7.632-23.425,7.629c-16.631,0-28.311-8.14-35.034-24.418c-2.479-6.546-3.718-13.688-3.716-21.432
	L534.357,303.388z"/>
</svg>
